<svg width="283" height="86" viewBox="0 0 283 86" fill="none" xmlns="http://www.w3.org/2000/svg">
<g filter="url(#filter0_d_1_11)">
<path d="M47.7866 15.0659C47.7866 19.41 46.4723 22.8963 43.8438 25.5249C41.2152 28.1535 37.7427 29.4678 33.4263 29.4678C31.6278 29.4678 29.9538 29.2603 28.4043 28.8452C26.8825 28.4025 25.4852 27.7246 24.2124 26.8115C22.8013 25.8154 21.736 24.6257 21.0166 23.2422C20.3249 21.8587 19.979 20.3092 19.979 18.5938C19.979 17.1549 20.2419 15.8822 20.7676 14.7754C21.2933 13.641 22.0957 12.6864 23.1748 11.9116C24.1432 11.2199 25.2223 10.6942 26.4121 10.3345C27.6296 9.97477 28.9854 9.79492 30.4795 9.79492C31.3926 9.79492 32.2642 9.9056 33.0942 10.127C33.9243 10.3483 34.6576 10.6942 35.2939 11.1646C36.041 11.7179 36.5944 12.3543 36.9541 13.0737C37.3415 13.7655 37.5352 14.5679 37.5352 15.481C37.5352 16.8091 37.0233 17.9159 35.9995 18.8013C35.0034 19.6867 33.8136 20.1294 32.4302 20.1294C31.5448 20.1294 30.7977 19.9772 30.189 19.6729C29.5802 19.3685 29.1099 18.8843 28.7778 18.2202C28.9992 18.2756 29.2344 18.3171 29.4834 18.3447C29.7324 18.3724 29.9538 18.3862 30.1475 18.3862C31.1159 18.3862 31.8353 18.2202 32.3057 17.8882C32.776 17.5285 33.0112 16.9751 33.0112 16.228C33.0112 15.5086 32.7622 14.9691 32.2642 14.6094C31.7661 14.222 31.019 14.0283 30.0229 14.0283C29.3589 14.0283 28.7225 14.1252 28.1138 14.3188C27.505 14.4849 26.9793 14.7477 26.5366 15.1074C26.0109 15.5225 25.6097 16.0067 25.333 16.5601C25.0563 17.0858 24.918 17.6668 24.918 18.3032C24.918 20.3507 25.582 21.8726 26.9102 22.8687C28.2383 23.8647 30.2305 24.3628 32.8867 24.3628C35.4876 24.3628 37.5905 23.4774 39.1953 21.7065C40.8001 19.908 41.6025 17.6945 41.6025 15.0659C41.6025 13.4888 41.229 12.0776 40.4819 10.8325C39.7625 9.5874 38.6834 8.5083 37.2446 7.59521C36.0549 6.82048 34.7267 6.25326 33.2603 5.89355C31.8215 5.53385 30.2581 5.354 28.5703 5.354C26.5228 5.354 24.6551 5.60303 22.9673 6.10107C21.2795 6.59912 19.7853 7.36003 18.4849 8.38379C17.0737 9.49056 16.0085 10.8187 15.2891 12.3682C14.5697 13.9176 14.21 15.6885 14.21 17.6807C14.21 19.7005 14.874 21.665 16.2021 23.5742C17.5303 25.4557 19.5225 27.2957 22.1787 29.0942C24.6689 30.7821 27.1453 32.4561 29.6079 34.1162C32.0705 35.7764 34.533 37.4365 36.9956 39.0967C39.6519 41.4486 41.644 44.0356 42.9722 46.8579C44.3003 49.6525 44.9644 52.6823 44.9644 55.9473C44.9644 59.0186 44.411 61.7716 43.3042 64.2065C42.2251 66.6138 40.5788 68.689 38.3652 70.4321C36.3177 72.0369 34.0073 73.2682 31.4341 74.126C28.8885 74.9837 26.0524 75.4126 22.9258 75.4126C20.4632 75.4126 18.1943 75.1912 16.1191 74.7485C14.0716 74.3058 12.1763 73.6279 10.4331 72.7148C8.30257 71.5804 6.69775 70.1831 5.61865 68.5229C4.53955 66.8351 4 64.8706 4 62.6294C4 59.2261 4.91309 56.4868 6.73926 54.4116C8.5931 52.3088 11.194 51.2573 14.542 51.2573C15.8978 51.2573 17.1291 51.451 18.2358 51.8384C19.3426 52.2257 20.3525 52.7791 21.2656 53.4985C22.2617 54.2733 22.995 55.1864 23.4653 56.2378C23.9634 57.2892 24.2124 58.4513 24.2124 59.7241C24.2124 62.1037 23.6452 63.8883 22.5107 65.0781C21.3763 66.2402 19.647 66.8213 17.3228 66.8213C16.0776 66.8213 14.9847 66.4754 14.0439 65.7837C13.1309 65.0643 12.6743 64.1235 12.6743 62.9614C12.6743 61.91 12.9095 61.1214 13.3799 60.5957C13.8779 60.07 14.6112 59.8071 15.5796 59.8071C15.6903 59.8071 15.8148 59.821 15.9531 59.8486C16.0915 59.8486 16.2298 59.8486 16.3682 59.8486C16.0361 60.0977 15.7871 60.3605 15.6211 60.6372C15.4551 60.9139 15.3721 61.1906 15.3721 61.4673C15.3721 62.0207 15.5381 62.4219 15.8701 62.6709C16.2021 62.9199 16.6864 63.0444 17.3228 63.0444C18.0422 63.0444 18.5679 62.8231 18.8999 62.3804C19.2596 61.91 19.4395 61.2044 19.4395 60.2637C19.4395 59.6273 19.2873 59.0601 18.9829 58.562C18.7062 58.0363 18.2635 57.5659 17.6548 57.1509C17.1567 56.8188 16.5895 56.5698 15.9531 56.4038C15.3444 56.2378 14.6942 56.1548 14.0024 56.1548C12.0933 56.1548 10.6545 56.7082 9.68604 57.8149C8.71761 58.894 8.2334 60.4989 8.2334 62.6294C8.2334 63.8745 8.52393 64.9813 9.10498 65.9497C9.68604 66.9181 10.5438 67.7482 11.6782 68.4399C12.619 69.021 13.6704 69.4499 14.8325 69.7266C15.9946 70.0033 17.2397 70.1416 18.5679 70.1416C20.2557 70.1416 21.8052 69.8511 23.2163 69.27C24.6274 68.689 25.8864 67.8035 26.9932 66.6138C28.0723 65.4517 28.8747 64.165 29.4004 62.7539C29.9538 61.3428 30.2305 59.7656 30.2305 58.0225C30.2305 56.1963 29.6632 54.2594 28.5288 52.2119C27.422 50.1367 25.7204 47.9647 23.4238 45.6958C21.3763 43.6759 19.2873 41.6838 17.1567 39.7192C15.0539 37.7547 12.951 35.7764 10.8481 33.7842C8.60693 31.377 6.91911 29.0112 5.78467 26.687C4.65023 24.3351 4.08301 22.0386 4.08301 19.7974C4.08301 16.4771 4.66406 13.5441 5.82617 10.9985C6.98828 8.45296 8.71761 6.32243 11.0142 4.60693C13.0894 3.05745 15.4966 1.90918 18.2358 1.16211C21.0028 0.38737 24.1156 0 27.5742 0C30.1198 0 32.5132 0.304362 34.7544 0.913086C37.0233 1.49414 39.1123 2.39339 41.0215 3.61084C43.2904 5.04964 44.9782 6.72363 46.085 8.63281C47.2194 10.542 47.7866 12.6864 47.7866 15.0659ZM72.3984 24.5703L71.3608 27.1021L67.75 25.2344C67.3626 25.7324 66.9338 26.1336 66.4634 26.438C65.993 26.7424 65.4673 26.9637 64.8862 27.1021L65.7163 30.5054L62.894 30.9204L62.1885 27.3511C61.7458 27.2681 61.3031 27.1159 60.8604 26.8945C60.4453 26.6455 60.0441 26.3688 59.6567 26.0645L56.9175 28.5962L55.0083 26.3965L58.2041 24.0723C57.9274 23.5465 57.7614 22.9932 57.7061 22.4121C57.6784 21.8311 57.7337 21.2085 57.8721 20.5444L54.1782 18.2202L55.5479 15.979L58.9512 18.3032C59.2832 17.8882 59.6567 17.5423 60.0718 17.2656C60.5145 16.9613 61.0125 16.7261 61.5659 16.5601L60.8604 11.6626H63.5166L63.6826 16.228C64.2913 16.311 64.8447 16.4494 65.3428 16.6431C65.8408 16.8368 66.3112 17.0858 66.7539 17.3901L69.6592 15.0659L71.5684 16.9751L68.248 19.2163C68.4694 19.5207 68.6216 19.991 68.7046 20.6274C68.7876 21.2638 68.8153 22.0662 68.7876 23.0347L72.3984 24.5703ZM70.9873 77.2388L53.5142 74.9976L59.9888 34.5728H67.75L70.9873 77.2388ZM66.0483 55.8228C66.0483 54.8543 65.7993 54.1211 65.3013 53.623C64.8309 53.125 64.0977 52.876 63.1016 52.876C62.0778 52.876 61.3169 53.125 60.8188 53.623C60.3208 54.1211 60.0718 54.8543 60.0718 55.8228C60.0718 56.8188 60.3208 57.5659 60.8188 58.064C61.3169 58.562 62.0778 58.811 63.1016 58.811C64.0977 58.811 64.8309 58.562 65.3013 58.064C65.7993 57.5659 66.0483 56.8188 66.0483 55.8228ZM66.0483 67.0703C66.0483 66.0189 65.6748 65.1196 64.9277 64.3726C64.1807 63.6255 63.2676 63.252 62.1885 63.252C61.1647 63.252 60.2793 63.6255 59.5322 64.3726C58.7852 65.1196 58.4116 66.0189 58.4116 67.0703C58.4116 68.1217 58.7852 69.021 59.5322 69.7681C60.2793 70.4875 61.1647 70.8472 62.1885 70.8472C63.2676 70.8472 64.1807 70.4875 64.9277 69.7681C65.6748 69.021 66.0483 68.1217 66.0483 67.0703ZM124.859 70.8472L108.88 73.6694C109.102 65.2026 109.254 59.4336 109.337 56.3623C109.42 53.2633 109.461 51.3265 109.461 50.5518C109.461 47.9785 109.046 46.0555 108.216 44.7827C107.386 43.4823 106.127 42.832 104.439 42.832C102.862 42.832 101.202 43.5514 99.459 44.9902C97.7435 46.4014 95.945 48.5319 94.0635 51.3818L92.8599 72.8809L85.3477 73.877L80.9067 35.8179L95.1011 32.8296L94.4785 44.7827C96.526 42.0435 98.6981 39.9821 100.995 38.5986C103.291 37.1875 105.698 36.4819 108.216 36.4819C111.537 36.4819 114.248 37.7271 116.351 40.2173C118.482 42.7075 120.045 46.4567 121.041 51.4648L124.859 70.8472ZM118.011 54.5776C118.011 53.7199 117.79 53.0697 117.347 52.627C116.904 52.1566 116.24 51.9214 115.355 51.9214C114.47 51.9214 113.792 52.1566 113.321 52.627C112.879 53.0697 112.657 53.7199 112.657 54.5776C112.657 55.4907 112.879 56.1825 113.321 56.6528C113.792 57.0955 114.47 57.3169 115.355 57.3169C116.24 57.3169 116.904 57.0955 117.347 56.6528C117.79 56.1825 118.011 55.4907 118.011 54.5776ZM119.547 64.7046C119.547 63.7638 119.201 62.9753 118.509 62.3389C117.818 61.6748 117.015 61.3428 116.102 61.3428C114.94 61.3428 114.068 61.6333 113.487 62.2144C112.934 62.7677 112.657 63.5978 112.657 64.7046C112.657 65.839 112.934 66.6968 113.487 67.2778C114.068 67.8312 114.94 68.1079 116.102 68.1079C117.015 68.1079 117.818 67.7897 118.509 67.1533C119.201 66.4893 119.547 65.673 119.547 64.7046ZM172.589 68.1909L172.547 70.4321C168.259 72.369 164.011 73.8078 159.806 74.7485C155.628 75.717 151.491 76.2012 147.396 76.2012C145.127 76.2012 143.052 75.9798 141.17 75.5371C139.289 75.0944 137.601 74.4442 136.107 73.5864C134.336 72.5627 132.994 71.2484 132.081 69.6436C131.196 68.0387 130.753 66.1711 130.753 64.0405C130.753 60.2775 132.634 56.9157 136.397 53.9551C140.188 50.9945 145.833 48.4351 153.331 46.2769C152.722 44.506 151.685 43.1641 150.218 42.251C148.779 41.3379 146.939 40.8813 144.698 40.8813C142.291 40.8813 140.105 41.3794 138.141 42.3755C136.176 43.3439 134.433 44.7827 132.911 46.6919L130.711 44.5752C133.036 41.0059 135.913 38.3219 139.344 36.5234C142.775 34.6973 146.773 33.7842 151.339 33.7842C155.047 33.7842 158.298 34.8218 161.092 36.897C163.915 38.9445 166.294 42.0296 168.231 46.1523C169.753 49.3896 170.873 52.8483 171.593 56.5283C172.34 60.1807 172.672 64.0682 172.589 68.1909ZM166.156 53.7476C166.156 52.7515 165.907 52.0044 165.409 51.5063C164.938 51.0083 164.205 50.7593 163.209 50.7593C162.213 50.7593 161.452 51.0083 160.926 51.5063C160.428 52.0044 160.179 52.7515 160.179 53.7476C160.179 54.7437 160.428 55.4907 160.926 55.9888C161.452 56.4591 162.213 56.6943 163.209 56.6943C164.205 56.6943 164.938 56.4591 165.409 55.9888C165.907 55.4907 166.156 54.7437 166.156 53.7476ZM156.278 65.1196C156.278 62.6017 156.153 60.1115 155.904 57.6489C155.683 55.1864 155.323 52.7515 154.825 50.3442C152.224 51.0913 149.872 51.8937 147.77 52.7515C145.694 53.5815 143.882 54.467 142.333 55.4077L146.566 72.5488C148.779 72.5488 150.689 72.4243 152.293 72.1753C153.898 71.9263 155.185 71.5251 156.153 70.9717C156.209 69.9756 156.236 68.9933 156.236 68.0249C156.264 67.0565 156.278 66.0881 156.278 65.1196ZM167.857 64.9536C167.857 63.9022 167.484 63.0029 166.737 62.2559C166.017 61.5088 165.118 61.1353 164.039 61.1353C162.988 61.1353 162.075 61.495 161.3 62.2144C160.553 62.9338 160.179 63.8468 160.179 64.9536C160.179 66.0327 160.553 66.932 161.3 67.6514C162.075 68.3708 162.988 68.7305 164.039 68.7305C165.118 68.7305 166.017 68.3708 166.737 67.6514C167.484 66.9043 167.857 66.005 167.857 64.9536ZM202.057 1.41113L193.59 72.4658L180.433 71.1792L181.056 67.4023L186.161 68.1079L186.368 60.5127L180.558 60.1392L180.848 56.6943L186.368 56.7773L186.493 49.5142L180.433 49.2651L180.848 46.1938H186.576L186.7 38.2251L180.143 37.8101L180.558 33.6597L186.783 34.7803V27.9736L180.558 27.2681L181.056 23.8647L186.908 23.7402L186.991 16.5601L180.226 16.228L180.973 12.3267L186.991 12.9492L187.198 6.18408L180.018 5.64453L180.558 1.41113H202.057ZM226.212 24.5703L225.174 27.1021L221.563 25.2344C221.176 25.7324 220.747 26.1336 220.277 26.438C219.806 26.7424 219.281 26.9637 218.7 27.1021L219.53 30.5054L216.708 30.9204L216.002 27.3511C215.559 27.2681 215.117 27.1159 214.674 26.8945C214.259 26.6455 213.858 26.3688 213.47 26.0645L210.731 28.5962L208.822 26.3965L212.018 24.0723C211.741 23.5465 211.575 22.9932 211.52 22.4121C211.492 21.8311 211.547 21.2085 211.686 20.5444L207.992 18.2202L209.361 15.979L212.765 18.3032C213.097 17.8882 213.47 17.5423 213.885 17.2656C214.328 16.9613 214.826 16.7261 215.379 16.5601L214.674 11.6626H217.33L217.496 16.228C218.105 16.311 218.658 16.4494 219.156 16.6431C219.654 16.8368 220.125 17.0858 220.567 17.3901L223.473 15.0659L225.382 16.9751L222.062 19.2163C222.283 19.5207 222.435 19.991 222.518 20.6274C222.601 21.2638 222.629 22.0662 222.601 23.0347L226.212 24.5703ZM224.801 77.2388L207.328 74.9976L213.802 34.5728H221.563L224.801 77.2388ZM219.862 55.8228C219.862 54.8543 219.613 54.1211 219.115 53.623C218.644 53.125 217.911 52.876 216.915 52.876C215.891 52.876 215.13 53.125 214.632 53.623C214.134 54.1211 213.885 54.8543 213.885 55.8228C213.885 56.8188 214.134 57.5659 214.632 58.064C215.13 58.562 215.891 58.811 216.915 58.811C217.911 58.811 218.644 58.562 219.115 58.064C219.613 57.5659 219.862 56.8188 219.862 55.8228ZM219.862 67.0703C219.862 66.0189 219.488 65.1196 218.741 64.3726C217.994 63.6255 217.081 63.252 216.002 63.252C214.978 63.252 214.093 63.6255 213.346 64.3726C212.599 65.1196 212.225 66.0189 212.225 67.0703C212.225 68.1217 212.599 69.021 213.346 69.7681C214.093 70.4875 214.978 70.8472 216.002 70.8472C217.081 70.8472 217.994 70.4875 218.741 69.7681C219.488 69.021 219.862 68.1217 219.862 67.0703ZM278.59 50.5518C278.59 51.9629 278.092 53.1803 277.096 54.2041C276.1 55.2002 274.896 55.6982 273.485 55.6982C272.046 55.6982 270.815 55.2002 269.791 54.2041C268.795 53.1803 268.297 51.9629 268.297 50.5518C268.297 49.1683 268.809 47.9785 269.833 46.9824C270.884 45.9863 272.101 45.4883 273.485 45.4883C274.841 45.4883 276.03 45.9863 277.054 46.9824C278.078 47.9785 278.59 49.1683 278.59 50.5518ZM242.896 53.4985C242.896 54.9373 242.385 56.1548 241.361 57.1509C240.365 58.1193 239.133 58.6035 237.667 58.6035C236.256 58.6035 235.052 58.1193 234.056 57.1509C233.088 56.1548 232.604 54.9373 232.604 53.4985C232.604 52.1151 233.102 50.9253 234.098 49.9292C235.094 48.9331 236.284 48.4351 237.667 48.4351C239.078 48.4351 240.296 48.9331 241.319 49.9292C242.371 50.9253 242.896 52.1151 242.896 53.4985ZM274.232 67.6099L263.648 75.7446L253.438 58.811L239.369 75.2051L236.629 72.7563L250.284 53.7476L239.286 35.1953L244.349 31.9165L256.053 45.9033L265.433 32.6636L271.825 37.395L260.245 50.8423L274.232 67.6099Z" fill="white"/>
</g>
<defs>
<filter id="filter0_d_1_11" x="0" y="0" width="282.59" height="85.2388" filterUnits="userSpaceOnUse" color-interpolation-filters="sRGB">
<feFlood flood-opacity="0" result="BackgroundImageFix"/>
<feColorMatrix in="SourceAlpha" type="matrix" values="0 0 0 0 0 0 0 0 0 0 0 0 0 0 0 0 0 0 127 0" result="hardAlpha"/>
<feOffset dy="4"/>
<feGaussianBlur stdDeviation="2"/>
<feComposite in2="hardAlpha" operator="out"/>
<feColorMatrix type="matrix" values="0 0 0 0 0 0 0 0 0 0 0 0 0 0 0 0 0 0 0.25 0"/>
<feBlend mode="normal" in2="BackgroundImageFix" result="effect1_dropShadow_1_11"/>
<feBlend mode="normal" in="SourceGraphic" in2="effect1_dropShadow_1_11" result="shape"/>
</filter>
</defs>
</svg>
